<?xml version="1.0" standalone="no"?>
<!DOCTYPE svg PUBLIC "-//W3C//DTD SVG 20010904//EN"
 "http://www.w3.org/TR/2001/REC-SVG-20010904/DTD/svg10.dtd">
<svg version="1.0" xmlns="http://www.w3.org/2000/svg"
 width="2000.000000pt" height="2000.000000pt" viewBox="0 0 2000.000000 2000.000000"
 preserveAspectRatio="xMidYMid meet">
<metadata>
Created by potrace 1.11, written by Peter Selinger 2001-2013
</metadata>
<g transform="translate(0.000000,2000.000000) scale(0.100000,-0.100000)"
fill="#000000" stroke="none">
<path d="M0 10000 l0 -10000 10000 0 10000 0 0 10000 0 10000 -10000 0 -10000
0 0 -10000z m6560 2463 c121 -19 255 -63 350 -114 201 -108 419 -278 461 -361
41 -81 21 -127 -122 -273 -163 -167 -202 -176 -319 -79 -146 121 -334 228
-460 260 -90 23 -265 23 -349 0 -130 -35 -285 -133 -353 -223 -21 -27 -52 -80
-70 -119 -29 -62 -33 -80 -36 -177 -7 -191 44 -330 171 -463 113 -120 261
-210 552 -339 663 -293 968 -595 1055 -1045 84 -431 -27 -800 -328 -1092 -223
-217 -497 -345 -807 -379 -200 -21 -506 8 -670 64 -161 55 -331 165 -483 311
-181 175 -187 237 -37 395 105 109 154 141 219 141 63 0 117 -31 231 -130 94
-82 241 -160 360 -192 107 -29 354 -31 460 -5 178 45 356 177 424 317 100 208
68 489 -77 662 -101 120 -259 227 -580 392 -133 68 -289 152 -347 187 -371
223 -592 486 -674 804 -29 111 -40 210 -41 353 -1 438 226 796 635 1000 237
118 528 155 835 105z m3273 11 c439 -34 873 -294 1094 -655 55 -89 119 -234
148 -337 59 -202 59 -193 63 -1132 4 -905 0 -1035 -39 -1200 -81 -351 -260
-621 -544 -824 -87 -63 -283 -162 -385 -195 -348 -113 -782 -102 -1111 29
-301 119 -532 308 -689 564 -86 142 -153 323 -187 511 -15 78 -17 203 -21 955
-3 905 0 1019 39 1198 57 263 196 511 386 692 226 214 516 349 834 389 149 19
222 20 412 5z m3577 -11 c121 -19 255 -63 350 -114 201 -108 419 -278 461
-361 41 -81 21 -127 -122 -273 -163 -167 -202 -176 -319 -79 -146 121 -334
228 -460 260 -90 23 -265 23 -349 0 -130 -35 -285 -133 -353 -223 -21 -27 -52
-80 -70 -119 -29 -62 -33 -80 -36 -177 -7 -191 44 -330 171 -463 113 -120 261
-210 552 -339 663 -293 968 -595 1055 -1045 84 -431 -27 -800 -328 -1092 -223
-217 -497 -345 -807 -379 -200 -21 -506 8 -670 64 -161 55 -331 165 -483 311
-181 175 -187 237 -37 395 105 109 154 141 219 141 63 0 117 -31 231 -130 94
-82 241 -160 360 -192 107 -29 354 -31 460 -5 178 45 356 177 424 317 100 208
68 489 -77 662 -101 120 -259 227 -580 392 -133 68 -289 152 -347 187 -371
223 -592 486 -674 804 -29 111 -40 210 -41 353 -1 438 226 796 635 1000 237
118 528 155 835 105z"/>
<path d="M9510 11909 c-306 -33 -522 -181 -650 -444 -51 -105 -74 -184 -90
-306 -13 -103 -13 -1671 0 -1779 14 -114 35 -189 81 -288 105 -228 278 -375
516 -439 89 -24 115 -26 283 -26 168 0 194 2 283 26 288 77 490 286 575 595
l27 97 0 920 0 920 -23 90 c-48 186 -161 369 -290 470 -172 135 -431 195 -712
164z"/>
</g>
</svg>
